<svg width="24" height="24" viewBox="0 0 24 24" fill="none" xmlns="http://www.w3.org/2000/svg">
    <path d="M4.04928 11.3587C4.05941 11.4391 4.07577 11.5207 4.08901 11.6018C4.11861 11.7828 4.1545 11.9648 4.19973 12.149C4.2224 12.2413 4.24698 12.3339 4.27346 12.427C4.32674 12.6135 4.38912 12.8019 4.45797 12.9915C4.48824 13.0749 4.51547 13.1578 4.54873 13.2419C4.65658 13.5141 4.77566 13.7885 4.91473 14.0669C5.55819 15.3009 6.39642 16.423 7.39715 17.3901L12.0001 22.0003L16.3845 17.6036C17.4254 16.5977 18.3069 15.4389 18.9986 14.1673C19.614 13.0748 19.9563 11.8498 19.9962 10.5965C20.0345 9.47552 19.8113 8.36105 19.3441 7.34138C18.8769 6.32171 18.1786 5.42488 17.3046 4.72196C15.7793 3.56696 13.909 2.96033 11.9962 3.00022C10.054 2.95167 8.15349 3.56771 6.60911 4.74638C5.75187 5.45388 5.06994 6.35011 4.61665 7.36498C4.16335 8.37984 3.951 9.48581 3.99619 10.5964C3.99803 10.8513 4.01576 11.1059 4.04928 11.3587ZM9.10537 10.2088C9.26176 9.63642 9.58435 9.12328 10.0324 8.73426C10.4804 8.34524 11.0337 8.09781 11.6223 8.02325C12.211 7.9487 12.8085 8.05037 13.3394 8.31541C13.8702 8.58045 14.3106 8.99695 14.6047 9.51225C14.8989 10.0276 15.0336 10.6185 14.9919 11.2104C14.9502 11.8023 14.7339 12.3685 14.3704 12.8374C14.0069 13.3064 13.5125 13.657 12.9497 13.845C12.3869 14.0329 11.781 14.0498 11.2086 13.8934C10.4411 13.6837 9.78836 13.1777 9.39392 12.4867C8.99949 11.7957 8.89569 10.9763 9.10537 10.2088Z" fill="white"/>
</svg>
