<svg width="24" height="24" viewBox="0 0 24 24" fill="none" xmlns="http://www.w3.org/2000/svg">
    <path d="M20.536 8.464C19.5979 7.52677 18.3261 7.00022 17 7H7C6.34339 7 5.69321 7.12933 5.08658 7.3806C4.47996 7.63188 3.92876 8.00017 3.46447 8.46447C3.00017 8.92876 2.63188 9.47995 2.3806 10.0866C2.12933 10.6932 2 11.3434 2 12C2 12.6566 2.12933 13.3068 2.3806 13.9134C2.63188 14.52 3.00017 15.0712 3.46447 15.5355C3.92876 15.9998 4.47996 16.3681 5.08658 16.6194C5.69321 16.8707 6.34339 17 7 17V21L11 17H17C17.9889 16.9999 18.9556 16.7065 19.7778 16.1571C20.6 15.6076 21.2408 14.8267 21.6193 13.9131C21.9977 12.9995 22.0968 11.9942 21.904 11.0243C21.7112 10.0544 21.2351 9.16339 20.536 8.464ZM7 13.5C6.70333 13.5 6.41332 13.412 6.16665 13.2472C5.91997 13.0824 5.72771 12.8481 5.61418 12.574C5.50065 12.2999 5.47094 11.9983 5.52882 11.7074C5.5867 11.4164 5.72956 11.1491 5.93934 10.9393C6.14912 10.7296 6.41639 10.5867 6.70736 10.5288C6.99834 10.4709 7.29994 10.5006 7.57403 10.6142C7.84811 10.7277 8.08238 10.92 8.2472 11.1666C8.41203 11.4133 8.5 11.7033 8.5 12C8.49986 12.3978 8.34178 12.7792 8.0605 13.0605C7.77923 13.3418 7.39778 13.4999 7 13.5ZM12 13.5C11.7033 13.5 11.4133 13.412 11.1666 13.2472C10.92 13.0824 10.7277 12.8481 10.6142 12.574C10.5006 12.2999 10.4709 11.9983 10.5288 11.7074C10.5867 11.4164 10.7296 11.1491 10.9393 10.9393C11.1491 10.7296 11.4164 10.5867 11.7074 10.5288C11.9983 10.4709 12.2999 10.5006 12.574 10.6142C12.8481 10.7277 13.0824 10.92 13.2472 11.1666C13.412 11.4133 13.5 11.7033 13.5 12C13.4999 12.3978 13.3418 12.7792 13.0605 13.0605C12.7792 13.3418 12.3978 13.4999 12 13.5ZM17 13.5C16.7033 13.5 16.4133 13.412 16.1666 13.2472C15.92 13.0824 15.7277 12.8481 15.6142 12.574C15.5006 12.2999 15.4709 11.9983 15.5288 11.7074C15.5867 11.4164 15.7296 11.1491 15.9393 10.9393C16.1491 10.7296 16.4164 10.5867 16.7074 10.5288C16.9983 10.4709 17.2999 10.5006 17.574 10.6142C17.8481 10.7277 18.0824 10.92 18.2472 11.1666C18.412 11.4133 18.5 11.7033 18.5 12C18.4999 12.3978 18.3418 12.7792 18.0605 13.0605C17.7792 13.3418 17.3978 13.4999 17 13.5Z" fill="white"/>
</svg>
